<?xml version="1.0" encoding="UTF-8" standalone="no"?>
<!-- Created with Inkscape (http://www.inkscape.org/) -->

<svg
   width="130.69281mm"
   height="117.71569mm"
   viewBox="0 0 130.69281 117.71569"
   version="1.1"
   id="svg1"
   xml:space="preserve"
   xmlns="http://www.w3.org/2000/svg"
   xmlns:svg="http://www.w3.org/2000/svg"><defs
     id="defs1" /><g
     id="layer2"
     transform="translate(-31.956073,-332.63444)"><g
       id="g22"
       transform="translate(168.75398)"><path
         style="fill:#f97c20;fill-opacity:1;stroke:none;stroke-width:2;stroke-linecap:round;stroke-linejoin:round;stroke-dasharray:none;stroke-opacity:1"
         d="M 18.744535,116.66975 V 42.194181 A 21.516756,21.516756 135 0 1 40.261291,20.677425 h 21.48881 a 10.160205,10.160205 26.121466 0 1 8.032801,3.938961 l 4.482039,5.787159 a 10.160205,10.160205 26.121466 0 0 8.032801,3.938961 h 45.530038 a 21.609584,21.609584 45 0 1 21.60958,21.609584 v 60.86611 a 21.574914,21.574914 135.0739 0 1 -21.63057,21.57484 l -87.620365,-0.22602 a 21.497343,21.497343 45.073899 0 1 -21.44189,-21.49727 z"
         id="path16"
         transform="translate(-155.54246,311.95701)" /><g
         id="g21"
         transform="translate(-155.54246,311.95701)"><path
           d="M 114.98183,60.062214 H 70.412308 A 16.807367,16.807367 135 0 0 53.604941,76.869581 v 61.252969 l 29.17889,0.0592 v -17.74588 a 10.387433,10.387433 135 0 1 10.387433,-10.38743 h 21.747226 c 0,0 -13.52653,-16.079502 -21.656037,-25.256653 5.715055,-6.277277 13.207107,-14.835145 21.719637,-24.729573 z"
           id="path17"
           style="font-size:110.589px;font-family:'Neue Helvetica BQ';-inkscape-font-specification:'Neue Helvetica BQ, Normal';fill:#f9f9f9;stroke-width:0.575981"
           aria-label="F"
           transform="translate(0,0.07866412)" /><path
           style="fill:none;fill-opacity:1;stroke:#a657ed;stroke-width:5;stroke-linecap:round;stroke-linejoin:round;stroke-dasharray:none;stroke-opacity:1"
           d="M 115.51467,60.057317 93.361718,85.054093 115.44653,110.05087"
           id="path18" /><path
           style="display:inline;fill:#cc9ee5;fill-opacity:1;stroke:#a657ed;stroke-width:5;stroke-linecap:round;stroke-linejoin:round;stroke-dasharray:none;stroke-opacity:1"
           d="M 93.511771,84.993363 H 74.846246"
           id="path19" /><circle
           style="fill:#a657ed;fill-opacity:1;stroke:none;stroke-width:8.838;stroke-linecap:round;stroke-linejoin:round;stroke-dasharray:none;stroke-opacity:1"
           id="circle19"
           cx="115.45615"
           cy="110.03839"
           r="6.1801715" /><circle
           style="fill:#a657ed;fill-opacity:1;stroke:none;stroke-width:8.838;stroke-linecap:round;stroke-linejoin:round;stroke-dasharray:none;stroke-opacity:1"
           id="circle20"
           cx="72.858231"
           cy="85.035263"
           r="6.1801715" /><circle
           style="fill:#a657ed;fill-opacity:1;stroke:none;stroke-width:8.838;stroke-linecap:round;stroke-linejoin:round;stroke-dasharray:none;stroke-opacity:1"
           id="circle21"
           cx="115.45615"
           cy="60.958183"
           r="6.1801715" /></g></g></g></svg>
